<mxfile host="app.diagrams.net" agent="Mozilla/5.0 (Windows NT 10.0; Win64; x64) AppleWebKit/537.36 (KHTML, like Gecko) Chrome/131.0.0.0 Safari/537.36 Edg/131.0.0.0" version="25.0.3">
  <diagram id="C5RBs43oDa-KdzZeNtuy" name="Page-1">
    <mxGraphModel dx="704" dy="945" grid="1" gridSize="10" guides="1" tooltips="1" connect="1" arrows="1" fold="1" page="1" pageScale="1" pageWidth="827" pageHeight="1169" math="0" shadow="0">
      <root>
        <mxCell id="WIyWlLk6GJQsqaUBKTNV-0" />
        <mxCell id="WIyWlLk6GJQsqaUBKTNV-1" parent="WIyWlLk6GJQsqaUBKTNV-0" />
        <mxCell id="ZvimBQE8goroSqmxu7vK-4" value="" style="edgeStyle=none;curved=1;rounded=0;orthogonalLoop=1;jettySize=auto;html=1;fontSize=12;startSize=8;endSize=8;" edge="1" parent="WIyWlLk6GJQsqaUBKTNV-1" source="ZvimBQE8goroSqmxu7vK-0" target="ZvimBQE8goroSqmxu7vK-1">
          <mxGeometry relative="1" as="geometry" />
        </mxCell>
        <mxCell id="ZvimBQE8goroSqmxu7vK-0" value="MergeSort&lt;div&gt;Начало&lt;/div&gt;" style="strokeWidth=2;html=1;shape=mxgraph.flowchart.terminator;whiteSpace=wrap;" vertex="1" parent="WIyWlLk6GJQsqaUBKTNV-1">
          <mxGeometry x="240" y="40" width="200" height="80" as="geometry" />
        </mxCell>
        <mxCell id="ZvimBQE8goroSqmxu7vK-5" style="edgeStyle=none;curved=1;rounded=0;orthogonalLoop=1;jettySize=auto;html=1;entryX=0.5;entryY=0;entryDx=0;entryDy=0;fontSize=12;startSize=8;endSize=8;" edge="1" parent="WIyWlLk6GJQsqaUBKTNV-1" source="ZvimBQE8goroSqmxu7vK-1" target="ZvimBQE8goroSqmxu7vK-2">
          <mxGeometry relative="1" as="geometry" />
        </mxCell>
        <mxCell id="ZvimBQE8goroSqmxu7vK-1" value="data, left, mid, right" style="shape=parallelogram;perimeter=parallelogramPerimeter;whiteSpace=wrap;html=1;fixedSize=1;" vertex="1" parent="WIyWlLk6GJQsqaUBKTNV-1">
          <mxGeometry x="240" y="160" width="200" height="80" as="geometry" />
        </mxCell>
        <mxCell id="ZvimBQE8goroSqmxu7vK-10" style="edgeStyle=none;curved=1;rounded=0;orthogonalLoop=1;jettySize=auto;html=1;entryX=0.5;entryY=0;entryDx=0;entryDy=0;fontSize=12;startSize=8;endSize=8;" edge="1" parent="WIyWlLk6GJQsqaUBKTNV-1" source="ZvimBQE8goroSqmxu7vK-2" target="ZvimBQE8goroSqmxu7vK-9">
          <mxGeometry relative="1" as="geometry" />
        </mxCell>
        <mxCell id="ZvimBQE8goroSqmxu7vK-2" value="" style="shape=process;whiteSpace=wrap;html=1;backgroundOutline=1;" vertex="1" parent="WIyWlLk6GJQsqaUBKTNV-1">
          <mxGeometry x="240" y="280" width="200" height="80" as="geometry" />
        </mxCell>
        <mxCell id="ZvimBQE8goroSqmxu7vK-3" value="comparator" style="text;html=1;align=center;verticalAlign=middle;whiteSpace=wrap;rounded=0;fontSize=16;" vertex="1" parent="WIyWlLk6GJQsqaUBKTNV-1">
          <mxGeometry x="310" y="305" width="60" height="30" as="geometry" />
        </mxCell>
        <mxCell id="ZvimBQE8goroSqmxu7vK-6" value="" style="endArrow=none;dashed=1;html=1;rounded=0;fontSize=12;startSize=8;endSize=8;curved=1;exitX=1;exitY=0.5;exitDx=0;exitDy=0;" edge="1" parent="WIyWlLk6GJQsqaUBKTNV-1" source="ZvimBQE8goroSqmxu7vK-1">
          <mxGeometry width="50" height="50" relative="1" as="geometry">
            <mxPoint x="460" y="490" as="sourcePoint" />
            <mxPoint x="480" y="200" as="targetPoint" />
          </mxGeometry>
        </mxCell>
        <mxCell id="ZvimBQE8goroSqmxu7vK-7" value="" style="strokeWidth=2;html=1;shape=mxgraph.flowchart.annotation_2;align=left;labelPosition=right;pointerEvents=1;" vertex="1" parent="WIyWlLk6GJQsqaUBKTNV-1">
          <mxGeometry x="480" y="150" width="50" height="100" as="geometry" />
        </mxCell>
        <mxCell id="ZvimBQE8goroSqmxu7vK-8" value="data, mid&amp;nbsp;- по ссылке&lt;div&gt;left, right - по значению&amp;nbsp;&lt;/div&gt;" style="text;html=1;align=center;verticalAlign=middle;whiteSpace=wrap;rounded=0;fontSize=16;" vertex="1" parent="WIyWlLk6GJQsqaUBKTNV-1">
          <mxGeometry x="500" y="155" width="230" height="90" as="geometry" />
        </mxCell>
        <mxCell id="ZvimBQE8goroSqmxu7vK-20" value="" style="edgeStyle=none;curved=1;rounded=0;orthogonalLoop=1;jettySize=auto;html=1;fontSize=12;startSize=8;endSize=8;" edge="1" parent="WIyWlLk6GJQsqaUBKTNV-1" source="ZvimBQE8goroSqmxu7vK-9" target="ZvimBQE8goroSqmxu7vK-11">
          <mxGeometry relative="1" as="geometry" />
        </mxCell>
        <mxCell id="ZvimBQE8goroSqmxu7vK-9" value="left &amp;lt; right" style="rhombus;whiteSpace=wrap;html=1;" vertex="1" parent="WIyWlLk6GJQsqaUBKTNV-1">
          <mxGeometry x="240" y="400" width="200" height="80" as="geometry" />
        </mxCell>
        <mxCell id="ZvimBQE8goroSqmxu7vK-22" style="edgeStyle=none;curved=1;rounded=0;orthogonalLoop=1;jettySize=auto;html=1;entryX=0.5;entryY=0;entryDx=0;entryDy=0;fontSize=12;startSize=8;endSize=8;" edge="1" parent="WIyWlLk6GJQsqaUBKTNV-1" source="ZvimBQE8goroSqmxu7vK-11" target="ZvimBQE8goroSqmxu7vK-12">
          <mxGeometry relative="1" as="geometry" />
        </mxCell>
        <mxCell id="ZvimBQE8goroSqmxu7vK-11" value="mid := (left + right) div 2" style="rounded=0;whiteSpace=wrap;html=1;" vertex="1" parent="WIyWlLk6GJQsqaUBKTNV-1">
          <mxGeometry x="240" y="520" width="200" height="80" as="geometry" />
        </mxCell>
        <mxCell id="ZvimBQE8goroSqmxu7vK-23" style="edgeStyle=none;curved=1;rounded=0;orthogonalLoop=1;jettySize=auto;html=1;entryX=0.5;entryY=0;entryDx=0;entryDy=0;fontSize=12;startSize=8;endSize=8;" edge="1" parent="WIyWlLk6GJQsqaUBKTNV-1" source="ZvimBQE8goroSqmxu7vK-12" target="ZvimBQE8goroSqmxu7vK-14">
          <mxGeometry relative="1" as="geometry" />
        </mxCell>
        <mxCell id="ZvimBQE8goroSqmxu7vK-12" value="" style="shape=process;whiteSpace=wrap;html=1;backgroundOutline=1;" vertex="1" parent="WIyWlLk6GJQsqaUBKTNV-1">
          <mxGeometry x="240" y="640" width="200" height="80" as="geometry" />
        </mxCell>
        <mxCell id="ZvimBQE8goroSqmxu7vK-13" value="MergeSort(data, left, mid, comparator)" style="text;html=1;align=center;verticalAlign=middle;whiteSpace=wrap;rounded=0;fontSize=16;" vertex="1" parent="WIyWlLk6GJQsqaUBKTNV-1">
          <mxGeometry x="275" y="665" width="130" height="30" as="geometry" />
        </mxCell>
        <mxCell id="ZvimBQE8goroSqmxu7vK-24" style="edgeStyle=none;curved=1;rounded=0;orthogonalLoop=1;jettySize=auto;html=1;entryX=0.5;entryY=0;entryDx=0;entryDy=0;fontSize=12;startSize=8;endSize=8;" edge="1" parent="WIyWlLk6GJQsqaUBKTNV-1" source="ZvimBQE8goroSqmxu7vK-14" target="ZvimBQE8goroSqmxu7vK-16">
          <mxGeometry relative="1" as="geometry" />
        </mxCell>
        <mxCell id="ZvimBQE8goroSqmxu7vK-14" value="" style="shape=process;whiteSpace=wrap;html=1;backgroundOutline=1;" vertex="1" parent="WIyWlLk6GJQsqaUBKTNV-1">
          <mxGeometry x="240" y="760" width="200" height="80" as="geometry" />
        </mxCell>
        <mxCell id="ZvimBQE8goroSqmxu7vK-15" value="MergeSort(data, mid + 1, right, comparator)" style="text;html=1;align=center;verticalAlign=middle;whiteSpace=wrap;rounded=0;fontSize=16;" vertex="1" parent="WIyWlLk6GJQsqaUBKTNV-1">
          <mxGeometry x="285" y="785" width="110" height="30" as="geometry" />
        </mxCell>
        <mxCell id="ZvimBQE8goroSqmxu7vK-26" value="" style="edgeStyle=none;curved=1;rounded=0;orthogonalLoop=1;jettySize=auto;html=1;fontSize=12;startSize=8;endSize=8;" edge="1" parent="WIyWlLk6GJQsqaUBKTNV-1" source="ZvimBQE8goroSqmxu7vK-16" target="ZvimBQE8goroSqmxu7vK-25">
          <mxGeometry relative="1" as="geometry" />
        </mxCell>
        <mxCell id="ZvimBQE8goroSqmxu7vK-16" value="" style="shape=process;whiteSpace=wrap;html=1;backgroundOutline=1;" vertex="1" parent="WIyWlLk6GJQsqaUBKTNV-1">
          <mxGeometry x="240" y="880" width="200" height="80" as="geometry" />
        </mxCell>
        <mxCell id="ZvimBQE8goroSqmxu7vK-18" value="&lt;div&gt;&lt;div&gt;&lt;br&gt;&lt;/div&gt;&lt;/div&gt;" style="text;html=1;align=center;verticalAlign=middle;whiteSpace=wrap;rounded=0;fontSize=16;" vertex="1" parent="WIyWlLk6GJQsqaUBKTNV-1">
          <mxGeometry x="80" y="620" width="60" height="30" as="geometry" />
        </mxCell>
        <mxCell id="ZvimBQE8goroSqmxu7vK-19" value="Merge(data, left, mid, right, comparator)" style="text;html=1;align=center;verticalAlign=middle;whiteSpace=wrap;rounded=0;fontSize=16;" vertex="1" parent="WIyWlLk6GJQsqaUBKTNV-1">
          <mxGeometry x="285" y="900" width="110" height="30" as="geometry" />
        </mxCell>
        <mxCell id="ZvimBQE8goroSqmxu7vK-25" value="MergeSort&lt;div&gt;Конец&lt;/div&gt;" style="strokeWidth=2;html=1;shape=mxgraph.flowchart.terminator;whiteSpace=wrap;" vertex="1" parent="WIyWlLk6GJQsqaUBKTNV-1">
          <mxGeometry x="240" y="1000" width="200" height="80" as="geometry" />
        </mxCell>
        <mxCell id="ZvimBQE8goroSqmxu7vK-27" value="" style="endArrow=none;html=1;rounded=0;fontSize=12;startSize=8;endSize=8;curved=1;entryX=1;entryY=0.5;entryDx=0;entryDy=0;" edge="1" parent="WIyWlLk6GJQsqaUBKTNV-1" target="ZvimBQE8goroSqmxu7vK-9">
          <mxGeometry width="50" height="50" relative="1" as="geometry">
            <mxPoint x="480" y="440" as="sourcePoint" />
            <mxPoint x="370" y="790" as="targetPoint" />
          </mxGeometry>
        </mxCell>
        <mxCell id="ZvimBQE8goroSqmxu7vK-28" value="" style="endArrow=none;html=1;rounded=0;fontSize=12;startSize=8;endSize=8;curved=1;" edge="1" parent="WIyWlLk6GJQsqaUBKTNV-1">
          <mxGeometry width="50" height="50" relative="1" as="geometry">
            <mxPoint x="480" y="980" as="sourcePoint" />
            <mxPoint x="480" y="440" as="targetPoint" />
          </mxGeometry>
        </mxCell>
        <mxCell id="ZvimBQE8goroSqmxu7vK-29" value="" style="endArrow=classic;html=1;rounded=0;fontSize=12;startSize=8;endSize=8;curved=1;" edge="1" parent="WIyWlLk6GJQsqaUBKTNV-1">
          <mxGeometry width="50" height="50" relative="1" as="geometry">
            <mxPoint x="480" y="980" as="sourcePoint" />
            <mxPoint x="340" y="980" as="targetPoint" />
          </mxGeometry>
        </mxCell>
      </root>
    </mxGraphModel>
  </diagram>
</mxfile>
